<?xml version="1.0" standalone="no"?>
<!DOCTYPE svg PUBLIC "-//W3C//DTD SVG 20010904//EN"
 "http://www.w3.org/TR/2001/REC-SVG-20010904/DTD/svg10.dtd">
<svg version="1.0" xmlns="http://www.w3.org/2000/svg"
 width="1024.000000pt" height="1024.000000pt" viewBox="0 0 1024.000000 1024.000000"
 preserveAspectRatio="xMidYMid meet">

<g transform="translate(0.000000,1024.000000) scale(0.100000,-0.100000)"
fill="#000000" stroke="none">
<path d="M0 5120 l0 -5120 5120 0 5120 0 0 5120 0 5120 -5120 0 -5120 0 0
-5120z m5221 3667 c17 -21 57 -49 99 -68 39 -19 70 -37 70 -40 0 -4 -31 -19
-68 -33 -103 -40 -151 -100 -186 -231 l-13 -50 -12 44 c-42 148 -85 193 -251
258 -23 9 -21 12 42 42 119 56 146 90 188 231 12 41 25 79 28 84 3 5 20 -38
39 -96 21 -64 46 -119 64 -141z m-551 -94 c7 -21 55 -161 107 -312 73 -208 92
-275 83 -281 -7 -5 -38 -11 -69 -15 -181 -21 -480 -120 -701 -230 -193 -97
-341 -198 -491 -335 l-86 -79 -75 102 c-41 56 -86 121 -99 144 l-24 42 35 36
c19 20 74 68 123 107 48 39 87 73 87 74 0 2 -11 -2 -25 -8 -14 -6 -25 -15 -25
-20 0 -4 -9 -8 -19 -8 -11 0 -21 -3 -23 -7 -1 -5 -30 -28 -62 -53 -32 -24 -68
-57 -79 -72 -11 -15 -25 -24 -31 -21 -6 3 -8 3 -5 -1 4 -4 -32 -46 -80 -94
-236 -240 -350 -392 -486 -655 -214 -412 -297 -775 -297 -1292 0 -115 4 -228
10 -250 5 -22 15 -79 22 -127 10 -66 16 -85 27 -81 7 3 11 13 8 22 -2 9 -7 41
-10 71 -4 30 -8 62 -10 70 -2 8 -9 89 -15 179 -18 270 5 498 80 789 95 363
274 720 513 1017 153 191 126 186 235 38 l92 -125 -50 -62 c-163 -201 -345
-524 -419 -741 -93 -276 -116 -413 -116 -700 0 -224 10 -333 46 -500 24 -111
24 -112 -3 -120 -75 -22 -302 -92 -413 -127 -71 -24 -146 -48 -166 -54 l-36
-11 -36 151 c-58 241 -77 410 -77 671 0 407 65 731 230 1155 31 78 134 279
198 385 67 111 169 248 285 382 349 405 896 744 1455 902 145 41 310 79 349
80 28 1 33 -3 43 -36z m1102 1 c144 -32 320 -86 448 -137 150 -59 405 -190
545 -279 145 -93 180 -121 172 -135 -4 -6 -55 -43 -113 -82 l-106 -72 -52 29
c-240 135 -527 266 -559 256 -12 -4 -17 -2 -13 4 9 15 -94 46 -107 33 -8 -8
-7 -11 4 -11 35 0 287 -114 414 -188 44 -25 115 -70 158 -100 92 -64 103 -49
-106 -154 l-149 -75 -73 39 c-250 131 -551 227 -827 263 l-47 6 55 157 c30 86
58 166 63 177 5 11 31 84 56 163 l47 143 42 -6 c22 -4 89 -18 148 -31z m-622
-741 c12 -49 45 -160 72 -248 27 -88 103 -336 168 -551 l120 -391 -136 -344
c-74 -189 -160 -410 -191 -491 l-56 -148 -92 233 c-51 127 -133 338 -184 467
-50 129 -97 245 -102 256 -13 25 -23 -15 176 654 72 245 145 491 161 547 16
57 32 103 35 103 3 0 16 -39 29 -87z m1975 51 c121 -112 225 -218 217 -223 -4
-3 -37 -27 -73 -52 -381 -275 -1062 -543 -1584 -624 l-40 -6 -44 138 c-24 76
-46 143 -48 149 -3 7 39 19 107 33 222 44 515 132 725 218 229 94 522 262 640
367 22 19 45 35 50 36 6 0 29 -16 50 -36z m-2745 -524 c13 -8 13 -10 -2 -10
-9 0 -20 5 -23 10 -8 13 5 13 25 0z m-30 -14 c0 -3 -4 -8 -10 -11 -5 -3 -10
-1 -10 4 0 6 5 11 10 11 6 0 10 -2 10 -4z m3371 -163 c80 -166 99 -217 83
-226 -26 -15 -466 -124 -557 -139 -16 -3 -25 17 -59 122 -21 69 -40 131 -41
139 -1 9 11 18 28 23 17 5 84 24 150 43 l120 34 18 -21 17 -20 0 24 c0 23 9
27 103 56 56 17 103 31 103 31 1 1 17 -29 35 -66z m-3061 -47 c0 -2 -18 -60
-40 -128 -21 -67 -47 -148 -56 -179 l-17 -56 -131 -53 c-157 -62 -310 -141
-425 -218 -104 -70 -292 -264 -351 -362 -151 -250 -160 -513 -28 -757 16 -29
27 -53 24 -53 -2 0 -53 -15 -113 -34 -127 -39 -171 -50 -161 -41 4 4 -9 30
-28 57 -19 28 -34 55 -34 60 0 5 -5 6 -12 2 -6 -4 -8 -3 -5 3 8 12 -36 117
-45 108 -3 -3 -3 7 0 22 3 19 1 25 -6 18 -11 -11 -16 -37 -12 -70 l1 -20 10
20 c7 15 8 12 4 -15 -3 -19 -2 -29 1 -22 11 23 24 12 14 -13 -5 -14 -7 -32 -4
-40 4 -8 4 -15 1 -15 -9 0 -49 143 -53 190 -2 25 -9 79 -14 120 -7 52 -7 112
0 195 34 369 263 711 631 940 175 109 342 183 629 281 168 58 220 72 220 60z
m2268 -198 c56 -142 73 -236 73 -393 0 -237 -60 -431 -196 -636 -103 -154
-271 -321 -425 -420 -108 -70 -136 -86 -215 -124 -240 -114 -520 -209 -860
-293 -170 -42 -209 -51 -460 -107 -271 -61 -587 -134 -645 -149 -30 -8 -100
-26 -155 -41 -208 -55 -251 -67 -289 -81 -21 -8 -47 -12 -57 -9 -10 4 -19 3
-19 -2 0 -14 -81 -44 -101 -38 -11 4 -17 11 -14 16 8 12 7 12 -58 -10 -141
-49 -397 -189 -552 -302 -37 -28 -120 -104 -175 -161 -62 -65 -66 -67 -78 -48
-7 12 -10 25 -7 30 4 6 0 10 -7 10 -12 0 -35 27 -115 137 -13 17 -23 37 -23
44 0 7 -3 9 -7 6 -3 -4 -13 3 -21 14 -14 20 -11 24 39 76 181 185 460 362 765
486 289 118 639 217 1269 358 934 208 1219 295 1518 463 229 129 407 329 475
533 21 65 25 97 25 188 1 132 -5 195 -16 188 -4 -2 -5 8 -1 23 4 16 3 25 -2
21 -11 -6 -10 29 1 55 4 11 -7 45 -30 93 -20 42 -35 78 -33 79 6 4 333 94 345
95 6 1 29 -45 51 -101z m-399 -22 c6 -7 8 -22 4 -31 -4 -13 -3 -16 5 -11 8 5
10 2 6 -9 -5 -12 -10 -13 -20 -4 -7 6 -13 14 -12 17 2 20 -3 32 -12 27 -11 -7
-14 8 -3 18 10 10 19 8 32 -7z m24 -91 c-3 -9 -8 -14 -10 -11 -3 3 -2 9 2 15
9 16 15 13 8 -4z m24 -52 c-13 -13 -15 -12 -19 5 -4 15 -2 19 8 15 10 -4 13 0
8 13 -5 18 -5 18 6 0 10 -14 9 -21 -3 -33z m-400 -12 c137 -96 197 -218 177
-355 l-8 -51 -7 35 c-5 30 -7 31 -8 8 0 -15 -6 -30 -11 -33 -6 -4 -8 -16 -5
-28 2 -12 2 -16 -1 -8 -5 10 -8 11 -14 1 -5 -8 -15 9 -26 46 -16 49 -31 72
-95 136 -84 85 -146 120 -317 183 l-103 39 88 18 c48 10 117 26 153 37 36 11
74 20 86 20 11 1 52 -21 91 -48z m1791 -218 c55 -205 77 -404 77 -693 -1 -278
-13 -390 -72 -652 -21 -95 -30 -118 -44 -118 -9 0 -67 22 -129 50 -62 27 -128
54 -147 61 -23 7 -33 16 -29 25 10 27 46 230 62 349 25 191 30 558 10 755 -10
91 -21 180 -26 199 -5 19 -7 37 -5 39 7 8 228 60 256 61 25 1 28 -4 47 -76z
m-346 -99 c70 -418 45 -873 -72 -1286 -104 -372 -325 -779 -582 -1072 l-34
-40 -70 59 c-127 108 -174 150 -174 158 0 4 27 40 59 80 146 177 308 455 399
682 85 213 153 478 183 712 16 129 16 461 -1 588 -8 55 -14 113 -14 130 l-1
30 135 31 c74 18 140 31 145 30 6 -2 17 -47 27 -102z m-1881 -9 c222 -41 383
-118 427 -205 37 -73 30 -86 -25 -44 -61 46 -122 77 -208 103 -79 25 -304 63
-318 54 -5 -3 -6 4 -2 18 12 38 34 89 38 89 3 0 42 -7 88 -15z m-1312 -12 c-2
-10 5 -42 15 -71 10 -29 15 -59 12 -67 -3 -8 -27 -25 -54 -39 -123 -62 -285
-205 -347 -306 -42 -68 -85 -198 -85 -255 0 -38 -3 -43 -26 -48 -27 -5 -41 10
-65 68 -30 74 -41 95 -49 95 -15 0 -12 70 6 131 36 124 151 269 284 359 81 55
266 150 292 150 13 0 18 -6 17 -17z m2672 -350 c1 -133 -4 -189 -20 -266 -59
-280 -173 -498 -372 -714 -136 -147 -401 -305 -701 -417 -260 -97 -488 -157
-1103 -290 -428 -94 -745 -183 -911 -257 -22 -10 -63 -27 -90 -38 -117 -47
-317 -170 -424 -261 -64 -55 -123 -89 -114 -66 3 8 -1 19 -8 25 -7 6 -42 38
-78 71 -36 32 -70 60 -75 60 -23 0 -35 23 -22 39 15 21 -24 -11 -88 -71 -34
-32 -50 -55 -50 -71 0 -20 3 -23 17 -16 11 6 19 5 23 -2 4 -6 12 -8 19 -6 6 3
12 -4 12 -14 0 -18 -1 -18 -21 0 -20 19 -45 18 -45 -1 0 -6 7 -8 15 -5 8 4 17
1 21 -5 4 -7 3 -8 -4 -4 -7 4 -12 3 -12 -2 0 -14 28 -35 38 -28 6 3 9 -2 8
-11 0 -11 6 -18 17 -18 10 0 23 -11 31 -25 7 -14 17 -24 23 -23 5 1 10 -4 10
-12 0 -10 -8 -7 -28 8 -15 12 -26 28 -24 35 3 7 0 10 -6 6 -14 -8 -120 96
-112 109 3 6 2 7 -3 4 -6 -3 -15 -2 -22 2 -26 16 203 241 358 352 348 249 731
382 1665 579 237 50 568 141 772 211 149 51 412 179 523 255 204 137 388 314
522 499 53 73 173 300 196 370 10 33 25 91 32 128 21 103 31 61 31 -130z
m-2367 1 c5 -18 0 -23 -36 -34 -84 -24 -238 -98 -300 -143 -79 -57 -149 -129
-182 -186 -24 -43 -25 -44 -31 -20 -10 39 13 120 49 174 65 98 235 199 396
233 89 20 91 19 104 -24z m1009 10 c88 -15 215 -55 251 -79 17 -13 16 -14 -10
-28 -25 -13 -33 -13 -78 3 -80 27 -233 53 -323 54 -73 1 -83 3 -83 19 0 10 5
27 10 37 9 17 18 19 78 14 37 -3 107 -12 155 -20z m-2473 -764 c0 -5 -2 -10
-4 -10 -3 0 -8 5 -11 10 -3 6 -1 10 4 10 6 0 11 -4 11 -10z m71 -73 c-8 -8
-15 -5 -26 9 -8 10 -15 23 -15 28 0 6 7 1 15 -10 14 -18 15 -17 10 11 l-6 30
16 -29 c12 -20 14 -31 6 -39z m-51 18 c0 -5 -5 -3 -10 5 -5 8 -10 20 -10 25 0
6 5 3 10 -5 5 -8 10 -19 10 -25z m20 -25 c0 -5 -2 -10 -4 -10 -3 0 -8 5 -11
10 -3 6 -1 10 4 10 6 0 11 -4 11 -10z m4443 -327 c64 -35 117 -66 117 -68 0
-13 -77 -199 -118 -285 -55 -116 -162 -297 -238 -404 -27 -37 -56 -78 -64 -89
-71 -106 -321 -373 -435 -465 -38 -31 -73 -61 -76 -66 -4 -5 -12 -5 -19 -1 -8
5 -11 4 -7 -2 4 -6 -11 -24 -33 -42 -39 -31 -56 -39 -45 -21 3 6 -1 7 -10 3
-11 -4 -13 -8 -5 -13 8 -5 6 -11 -5 -20 -12 -10 -21 -10 -41 -1 -33 15 -45 14
-16 -2 l23 -13 -21 -19 c-18 -16 -23 -17 -31 -5 -8 12 -9 11 -7 -4 2 -13 -10
-26 -43 -45 -25 -14 -65 -39 -88 -54 -23 -16 -50 -31 -59 -34 -9 -3 -25 -13
-34 -21 -11 -9 -18 -11 -18 -4 0 7 26 25 58 42 50 28 53 33 7 14 -8 -3 -15 -2
-15 4 0 13 19 20 48 17 12 -1 22 4 22 11 0 16 37 37 50 29 6 -4 21 3 35 13 22
18 23 21 7 27 -15 6 -14 8 7 16 14 6 32 7 40 4 9 -3 6 3 -6 14 -26 22 -32 81
-9 81 8 0 16 7 19 15 5 10 -4 16 -28 21 -19 3 -35 12 -35 19 0 7 -11 16 -24
19 -18 4 -23 12 -22 33 1 16 5 34 10 42 6 8 -1 6 -16 -5 -18 -13 -22 -20 -12
-22 8 -2 14 -8 14 -14 0 -6 -11 -8 -27 -4 -21 5 -24 4 -13 -4 13 -9 12 -13 -9
-29 -13 -10 -36 -18 -51 -19 -16 0 -60 -20 -99 -44 -101 -61 -100 -60 -171
-98 -36 -19 -92 -46 -125 -60 -33 -15 -76 -33 -95 -42 -19 -8 -61 -24 -92 -34
-31 -10 -54 -22 -51 -27 3 -6 1 -7 -5 -3 -6 4 -37 -1 -69 -11 -32 -9 -60 -18
-63 -18 -3 -1 -23 -6 -45 -12 -129 -34 -269 -60 -448 -81 l-68 -9 3 44 3 44
225 115 c261 134 363 191 515 287 222 140 448 326 617 505 l77 82 126 -111
126 -112 -43 -45 c-24 -24 -106 -98 -183 -164 -171 -147 -182 -158 -125 -122
88 56 190 137 359 289 40 37 180 198 243 280 151 199 296 456 387 687 l43 107
31 -16 c18 -8 85 -45 150 -80z m-1383 -390 c-26 -46 -117 -161 -213 -268 -230
-257 -453 -444 -767 -640 -159 -99 -183 -111 -300 -140 -110 -27 -157 -32
-130 -15 21 13 6 12 -24 -1 -14 -7 -28 -19 -31 -27 -5 -14 -35 -251 -35 -279
0 -7 -9 -10 -22 -7 -56 10 -86 15 -123 20 -22 2 -58 7 -80 11 -22 3 -52 6 -67
7 -14 1 -24 5 -21 10 4 5 -13 7 -37 3 -25 -3 -38 -2 -31 3 9 5 -1 11 -30 18
-24 6 -71 18 -104 27 -33 10 -68 17 -77 17 -10 0 -18 4 -18 9 0 6 -4 7 -10 4
-5 -3 -10 -1 -10 4 0 6 -7 11 -15 11 -31 0 -12 18 80 75 211 133 361 226 385
238 14 6 66 39 117 72 149 97 228 145 235 142 4 -1 13 7 21 17 9 12 19 16 28
11 8 -5 11 -5 7 0 -5 5 8 19 27 32 36 25 50 29 40 13 -3 -6 1 -7 10 -3 12 4
13 8 5 13 -9 5 -9 9 -1 14 6 4 16 4 23 0 6 -4 8 -3 4 4 -8 14 74 71 93 64 9
-3 11 0 6 8 -6 10 -4 12 9 7 9 -4 15 -3 12 2 -3 5 13 21 37 36 44 29 114 80
209 152 32 25 62 42 66 39 4 -2 14 0 22 6 12 8 11 9 -4 4 -16 -6 -17 -4 -6 9
7 8 20 15 29 15 9 0 21 4 27 9 15 15 81 29 94 21 10 -6 8 -12 -8 -26 -28 -24
-19 -34 25 -27 29 5 35 3 28 -8 -10 -17 28 16 119 103 63 60 85 74 202 124 73
31 149 67 171 80 52 32 58 30 33 -13z m-1343 -389 c-3 -3 -12 -4 -19 -1 -8 3
-5 6 6 6 11 1 17 -2 13 -5z m-47 -14 c-8 -5 -10 -10 -5 -10 6 0 3 -5 -5 -10
-13 -8 -13 -10 2 -10 9 0 20 5 23 10 3 6 12 10 18 10 7 0 4 -7 -5 -14 -25 -18
-22 -29 5 -21 17 5 19 4 7 -4 -8 -6 -23 -11 -33 -11 -10 0 -16 -4 -12 -9 3 -5
0 -13 -6 -17 -8 -4 -9 -3 -5 4 4 7 2 12 -3 12 -6 0 -11 -6 -11 -12 0 -12 -76
-66 -93 -67 -4 0 -14 -6 -21 -14 -34 -34 -114 -77 -132 -71 -14 4 -15 3 -6 -4
10 -7 -10 -24 -78 -67 -50 -31 -94 -55 -97 -52 -3 4 6 12 21 18 14 7 26 16 26
21 0 5 -4 6 -10 3 -5 -3 -10 -1 -10 5 0 7 8 9 20 5 20 -6 58 14 95 49 20 20
20 20 -7 3 -16 -10 -28 -13 -28 -8 0 6 12 17 28 25 15 8 23 15 17 16 -5 0 -30
-14 -55 -31 -33 -22 -38 -29 -20 -24 21 5 22 4 8 -5 -10 -6 -24 -10 -30 -9
-24 4 -47 -12 -41 -28 5 -11 1 -14 -13 -9 -10 3 -26 1 -34 -4 -13 -8 -12 -10
3 -10 10 0 15 -5 12 -10 -4 -6 -12 -10 -18 -9 -18 3 -49 -12 -74 -34 -13 -11
-23 -17 -23 -14 0 9 -74 -37 -112 -69 -25 -20 -26 -23 -11 -36 15 -11 16 -11
10 5 -4 10 -2 17 6 17 7 0 18 9 25 20 7 11 17 20 24 20 7 0 3 -6 -8 -14 -10
-8 -16 -18 -12 -22 5 -4 16 0 25 8 22 18 43 31 43 25 0 -3 -24 -20 -52 -39
-29 -19 -94 -62 -144 -96 -51 -33 -95 -58 -98 -55 -3 4 -6 1 -6 -5 0 -6 -7 -9
-17 -5 -10 4 -14 2 -10 -4 4 -6 -1 -17 -10 -24 -9 -8 -14 -9 -10 -2 4 6 -1 19
-10 29 -16 16 -16 16 5 10 16 -6 22 -3 22 8 0 22 -11 20 -50 -9 -41 -30 -59
-31 -107 -5 -21 11 -46 20 -56 20 -10 0 -16 4 -13 9 3 4 -12 16 -34 26 -22 10
-45 24 -51 31 -6 7 -17 10 -26 7 -31 -12 5 33 61 75 241 182 504 305 866 406
312 86 379 101 340 76z m-1850 -224 c0 -2 -8 -10 -17 -17 -16 -13 -17 -12 -4
4 13 16 21 21 21 13z m1364 -160 c-10 -8 -21 -12 -24 -10 -5 6 21 24 34 24 6
0 1 -6 -10 -14z m-40 -14 c2 -4 -11 -17 -29 -29 -29 -19 -34 -20 -39 -6 -4 11
-2 14 9 9 9 -3 15 0 15 9 0 9 6 12 17 8 11 -4 14 -3 9 5 -4 7 -3 12 3 12 5 0
12 -3 15 -8z m-1134 -42 c0 -5 -5 -10 -11 -10 -5 0 -7 5 -4 10 3 6 8 10 11 10
2 0 4 -4 4 -10z m1050 6 c0 -3 -4 -8 -10 -11 -5 -3 -10 -1 -10 4 0 6 5 11 10
11 6 0 10 -2 10 -4z m-1093 -50 c-16 -13 -23 -28 -27 -61 -1 -12 -40 33 -40
47 0 6 9 0 20 -13 l20 -24 -10 28 c-6 18 -7 26 0 22 5 -3 18 -1 27 4 26 15 31
13 10 -3z m3352 -60 c10 -12 8 -14 -11 -9 -18 4 -20 3 -8 -6 17 -12 10 -14
-14 -5 -12 5 -13 9 -3 20 15 17 22 17 36 0z m-163 -61 c-20 -15 -36 -19 -36
-10 0 5 38 23 50 24 3 0 -4 -6 -14 -14z m-4132 -190 c38 -155 76 -204 196
-255 41 -17 79 -35 84 -40 5 -5 -26 -25 -75 -48 -128 -59 -155 -93 -208 -260
l-27 -84 -13 58 c-19 83 -62 173 -102 211 -19 17 -74 52 -124 77 l-90 45 35
14 c19 8 53 22 75 31 104 43 152 108 190 256 27 104 33 103 59 -5z m1190 71
c-3 -8 3 -17 14 -20 11 -4 26 -14 34 -23 12 -14 11 -15 -7 -5 -40 22 -58 39
-51 50 10 17 16 15 10 -2z m4415 -79 c32 -117 64 -173 118 -207 26 -17 50 -30
55 -30 4 0 33 -12 65 -26 l58 -26 -103 -49 c-124 -60 -148 -88 -195 -234 l-33
-102 -31 101 c-43 137 -75 174 -206 236 l-98 47 81 33 c94 38 153 78 174 119
9 16 27 69 41 118 33 116 34 118 44 107 5 -5 18 -44 30 -87z m-4005 61 c-5 -8
-1 -9 12 -4 14 5 16 4 7 -5 -13 -13 -37 -3 -28 12 4 5 8 9 11 9 3 0 2 -5 -2
-12z m2741 -5 c-8 -8 -19 -11 -25 -8 -17 11 -11 20 15 21 21 2 22 0 10 -13z
m-2765 -27 c0 -3 -4 -8 -10 -11 -5 -3 -10 -1 -10 4 0 6 5 11 10 11 6 0 10 -2
10 -4z m2600 -56 c0 -5 -5 -10 -11 -10 -5 0 -7 5 -4 10 3 6 8 10 11 10 2 0 4
-4 4 -10z m-43 -56 c-3 -3 -12 -4 -19 -1 -8 3 -5 6 6 6 11 1 17 -2 13 -5z
m-22 -16 c3 -2 -16 -14 -40 -25 -25 -11 -45 -17 -45 -12 0 5 11 11 25 15 20 5
23 9 15 19 -9 11 -5 13 15 11 14 -2 28 -5 30 -8z m-135 -63 c0 -2 -14 -12 -31
-21 -25 -12 -34 -13 -43 -3 -6 6 -6 9 -1 6 6 -3 24 1 40 8 37 17 35 16 35 10z
m-2315 -35 c-3 -5 -12 -10 -18 -10 -7 0 -6 4 3 10 19 12 23 12 15 0z m-935
-135 c8 -10 32 -25 54 -34 l39 -17 -55 -27 c-52 -26 -78 -56 -78 -93 0 -8 -4
-12 -10 -9 -5 3 -10 15 -10 26 0 28 -52 78 -89 85 -41 9 -39 17 11 40 40 18
51 33 83 119 6 17 10 12 24 -26 9 -26 23 -54 31 -64z m4174 42 c16 -42 25 -51
62 -67 24 -11 44 -21 44 -24 0 -3 -20 -14 -44 -25 -46 -20 -76 -60 -76 -101 0
-12 -4 -18 -10 -15 -5 3 -10 15 -10 25 0 28 -49 80 -94 100 l-41 17 37 12 c45
15 74 49 89 104 12 45 19 41 43 -26z m-2867 -53 c-3 -3 -12 -4 -19 -1 -8 3 -5
6 6 6 11 1 17 -2 13 -5z m1480 0 c-3 -3 -12 -4 -19 -1 -8 3 -5 6 6 6 11 1 17
-2 13 -5z m-1400 -20 c-3 -3 -12 -4 -19 -1 -8 3 -5 6 6 6 11 1 17 -2 13 -5z
m750 -41 c-3 -10 -5 -2 -5 17 0 19 2 27 5 18 2 -10 2 -26 0 -35z m-404 -20
c-7 -2 -19 -2 -25 0 -7 3 -2 5 12 5 14 0 19 -2 13 -5z m412 -23 c3 -5 1 -10
-4 -10 -6 0 -11 5 -11 10 0 6 2 10 4 10 3 0 8 -4 11 -10z m1731 -494 c39 -15
86 -40 104 -55 l33 -27 -77 -103 -77 -102 -27 19 c-113 78 -302 50 -396 -59
-57 -67 -79 -137 -74 -239 3 -70 9 -94 33 -139 58 -106 167 -171 286 -171 61
0 178 33 191 53 4 7 8 38 8 70 l0 57 -105 0 -105 0 0 120 0 120 228 -2 227 -3
0 -250 0 -250 -73 -52 c-132 -94 -282 -133 -444 -115 -156 18 -259 69 -366
181 -55 58 -126 185 -138 247 -3 19 -9 33 -13 32 -21 -11 -100 -64 -100 -68
-1 -4 182 -261 247 -349 l23 -31 -153 0 -153 0 -114 175 -113 175 -99 0 -99 0
0 -175 0 -175 -130 0 -130 0 0 560 0 560 263 0 c292 0 374 -9 452 -45 58 -28
135 -104 162 -159 9 -20 19 -36 23 -36 3 0 22 22 43 50 64 86 168 157 282 193
75 24 91 26 205 23 85 -3 119 -8 176 -30z m-4226 -121 l0 -125 -300 0 -300 0
0 -95 0 -95 270 0 c175 0 270 -4 270 -10 0 -11 -37 -184 -45 -210 -4 -13 -40
-15 -247 -15 l-243 0 -3 -97 -3 -98 316 0 315 0 0 -125 0 -125 -445 0 -445 0
0 560 0 560 430 0 430 0 0 -125z m512 113 c13 -11 208 -257 342 -433 17 -22
67 -85 111 -140 l80 -100 3 343 2 342 130 0 130 0 2 -482 c1 -266 3 -512 4
-547 1 -36 0 -71 -3 -78 -4 -10 -35 -13 -122 -13 l-116 0 -60 77 c-277 355
-446 563 -457 563 -4 0 -8 -144 -8 -320 l0 -320 -130 0 -130 0 0 560 0 560
103 0 c67 0 109 -4 119 -12z m1848 -113 l0 -125 -290 0 -290 0 0 -95 0 -95
265 0 c158 0 265 -4 265 -9 0 -15 -48 -210 -54 -220 -3 -5 -85 -6 -184 -3 -98
2 -204 2 -235 -2 l-57 -7 0 -95 0 -94 300 0 300 0 0 -125 0 -125 -429 0 -429
0 -7 37 c-8 42 -6 563 3 881 l5 202 419 0 418 0 0 -125z m2594 83 c19 -24 77
-99 128 -167 51 -69 98 -126 103 -128 6 -1 26 21 45 49 58 86 191 262 208 276
17 13 292 18 292 5 0 -8 -59 -89 -272 -377 -65 -87 -118 -165 -118 -172 0 -7
70 -106 155 -221 164 -219 245 -331 245 -338 0 -3 -65 -5 -145 -5 l-145 0 -48
61 c-26 34 -85 114 -130 178 -46 64 -87 117 -90 118 -4 1 -67 -79 -139 -178
l-133 -179 -155 0 -154 0 162 213 c89 116 186 243 215 280 l53 68 -17 27 c-18
28 -236 323 -331 448 -29 39 -53 73 -53 77 0 4 65 7 145 7 l144 0 35 -42z"/>
<path d="M3659 8019 l-24 -20 28 17 c15 9 27 18 27 20 0 8 -8 4 -31 -17z"/>
<path d="M3601 7987 c-14 -6 -26 -19 -28 -27 -3 -10 -1 -9 7 3 6 9 17 17 25
17 8 0 17 5 20 10 8 13 5 12 -24 -3z"/>
<path d="M2482 5225 c0 -11 3 -29 7 -39 7 -19 8 -19 13 2 4 12 2 20 -2 17 -5
-3 -11 5 -13 17 -4 19 -4 20 -5 3z"/>
<path d="M2506 5118 c3 -5 10 -6 15 -3 13 9 11 12 -6 12 -8 0 -12 -4 -9 -9z"/>
<path d="M3201 5654 c0 -11 3 -14 6 -6 3 7 2 16 -1 19 -3 4 -6 -2 -5 -13z"/>
<path d="M6601 6870 c0 -8 6 -26 14 -40 8 -14 14 -19 14 -10 0 8 -6 26 -14 40
-8 14 -14 19 -14 10z"/>
<path d="M6627 6794 c-4 -4 -7 -19 -6 -33 l0 -26 10 24 c10 26 8 47 -4 35z"/>
<path d="M3810 4870 c-9 -6 -10 -10 -3 -10 6 0 15 5 18 10 8 12 4 12 -15 0z"/>
<path d="M3685 4830 c-13 -6 -15 -9 -5 -9 8 0 22 4 30 9 18 12 2 12 -25 0z"/>
<path d="M3638 4813 c7 -3 16 -2 19 1 4 3 -2 6 -13 5 -11 0 -14 -3 -6 -6z"/>
<path d="M2674 4628 l-19 -23 23 19 c12 11 22 21 22 23 0 8 -8 2 -26 -19z"/>
<path d="M2686 4605 c-11 -8 -15 -15 -9 -15 6 0 16 7 23 15 16 19 11 19 -14 0z"/>
<path d="M2606 4481 c-3 -5 2 -15 12 -22 15 -12 16 -12 5 2 -7 9 -10 19 -6 22
3 4 4 7 0 7 -3 0 -8 -4 -11 -9z"/>
<path d="M6711 3839 c-13 -11 -22 -21 -20 -23 2 -3 17 7 32 20 15 13 24 24 20
24 -4 -1 -19 -10 -32 -21z"/>
<path d="M6698 3744 c6 -33 22 -41 22 -11 0 14 -6 27 -13 30 -10 4 -13 -2 -9
-19z"/>
<path d="M6527 3706 c-17 -13 -16 -14 6 -12 13 0 24 7 24 14 0 15 -7 15 -30
-2z"/>
<path d="M6756 3613 c2 -7 -2 -13 -9 -13 -8 0 -6 -4 3 -10 21 -13 39 -12 20 1
-12 9 -10 10 8 6 19 -5 21 -3 11 9 -6 7 -15 12 -19 9 -5 -3 -10 -2 -13 2 -2 5
-2 2 -1 -4z"/>
<path d="M5678 4333 c7 -3 16 -2 19 1 4 3 -2 6 -13 5 -11 0 -14 -3 -6 -6z"/>
<path d="M5240 4060 c-9 -6 -10 -10 -3 -10 6 0 15 5 18 10 8 12 4 12 -15 0z"/>
<path d="M5260 3750 c-9 -6 -10 -10 -3 -10 6 0 15 5 18 10 8 12 4 12 -15 0z"/>
<path d="M5204 3714 c-18 -14 -18 -14 6 -3 31 14 36 19 24 19 -6 0 -19 -7 -30
-16z"/>
<path d="M4938 4201 c11 -6 10 -10 -5 -16 -10 -5 -24 -7 -30 -6 -7 1 -13 -3
-13 -8 0 -5 -9 -12 -19 -16 -12 -4 -18 -12 -14 -21 6 -17 24 -19 21 -1 -2 7 7
11 25 10 17 -1 27 3 27 12 0 7 9 17 20 20 24 8 26 21 4 29 -22 9 -31 7 -16 -3z"/>
<path d="M4794 4094 c-10 -8 -13 -13 -6 -9 6 3 12 1 12 -4 0 -6 5 -11 11 -11
5 0 7 5 3 11 -3 6 0 15 7 20 8 5 9 9 3 9 -5 0 -19 -7 -30 -16z"/>
<path d="M4760 4050 c-14 -11 -20 -20 -14 -20 6 0 19 9 29 20 23 25 17 25 -15
0z"/>
<path d="M4703 4043 c-7 -2 -13 -9 -13 -15 0 -7 5 -6 14 1 11 9 15 9 19 -1 4
-8 6 -7 6 5 1 17 -4 19 -26 10z"/>
<path d="M4220 3730 c-12 -8 -12 -10 2 -15 26 -10 43 -2 26 12 -8 7 -19 8 -28
3z"/>
<path d="M4125 3672 c-64 -39 -70 -45 -61 -65 3 -8 9 -7 19 6 8 9 20 17 26 17
7 0 9 5 5 12 -5 8 -2 9 10 5 10 -4 19 -1 22 8 3 8 12 11 21 8 12 -5 14 -3 8 7
-6 10 -4 12 8 7 13 -5 27 10 27 29 0 12 -31 -1 -85 -34z"/>
<path d="M5590 2112 l0 -144 154 4 c173 3 194 11 228 79 33 63 14 140 -45 183
-25 19 -43 21 -182 21 l-155 0 0 -143z"/>
</g>
</svg>
